<mxfile host="app.diagrams.net" modified="2024-04-25T02:03:30.776Z" agent="Mozilla/5.0 (Windows NT 10.0; Win64; x64) AppleWebKit/537.36 (KHTML, like Gecko) Chrome/124.0.0.0 Safari/537.36" etag="5M-iWen0DHBoQsJ9uux-" version="24.2.8" type="device">
  <diagram name="Page-1" id="aylyuzyK0qthiXCJrvI8">
    <mxGraphModel dx="1050" dy="1683" grid="1" gridSize="10" guides="1" tooltips="1" connect="1" arrows="1" fold="1" page="1" pageScale="1" pageWidth="850" pageHeight="1100" math="0" shadow="0">
      <root>
        <mxCell id="0" />
        <mxCell id="1" parent="0" />
        <mxCell id="00jVBxkWEW1qKjyxyLZR-5" style="edgeStyle=orthogonalEdgeStyle;rounded=0;orthogonalLoop=1;jettySize=auto;html=1;entryX=0;entryY=0.5;entryDx=0;entryDy=0;" edge="1" parent="1" source="00jVBxkWEW1qKjyxyLZR-1" target="00jVBxkWEW1qKjyxyLZR-2">
          <mxGeometry relative="1" as="geometry" />
        </mxCell>
        <mxCell id="00jVBxkWEW1qKjyxyLZR-6" style="edgeStyle=orthogonalEdgeStyle;rounded=0;orthogonalLoop=1;jettySize=auto;html=1;entryX=0;entryY=0.5;entryDx=0;entryDy=0;" edge="1" parent="1" source="00jVBxkWEW1qKjyxyLZR-1" target="00jVBxkWEW1qKjyxyLZR-3">
          <mxGeometry relative="1" as="geometry" />
        </mxCell>
        <mxCell id="00jVBxkWEW1qKjyxyLZR-7" style="edgeStyle=orthogonalEdgeStyle;rounded=0;orthogonalLoop=1;jettySize=auto;html=1;entryX=0;entryY=0.5;entryDx=0;entryDy=0;" edge="1" parent="1" source="00jVBxkWEW1qKjyxyLZR-1" target="00jVBxkWEW1qKjyxyLZR-4">
          <mxGeometry relative="1" as="geometry" />
        </mxCell>
        <mxCell id="00jVBxkWEW1qKjyxyLZR-1" value="&lt;b&gt;CM Server&lt;/b&gt;" style="rounded=0;whiteSpace=wrap;html=1;fillColor=#f8cecc;strokeColor=#b85450;" vertex="1" parent="1">
          <mxGeometry x="120" y="120" width="120" height="60" as="geometry" />
        </mxCell>
        <mxCell id="00jVBxkWEW1qKjyxyLZR-2" value="&lt;b&gt;NODE-1&lt;/b&gt;" style="rounded=1;whiteSpace=wrap;html=1;fillColor=#fff2cc;strokeColor=#d6b656;" vertex="1" parent="1">
          <mxGeometry x="320" y="30" width="120" height="60" as="geometry" />
        </mxCell>
        <mxCell id="00jVBxkWEW1qKjyxyLZR-3" value="&lt;b&gt;NODE-2&lt;/b&gt;" style="rounded=1;whiteSpace=wrap;html=1;fillColor=#fff2cc;strokeColor=#d6b656;" vertex="1" parent="1">
          <mxGeometry x="320" y="120" width="120" height="60" as="geometry" />
        </mxCell>
        <mxCell id="00jVBxkWEW1qKjyxyLZR-4" value="&lt;b&gt;NODE-3&lt;/b&gt;" style="rounded=1;whiteSpace=wrap;html=1;fillColor=#fff2cc;strokeColor=#d6b656;" vertex="1" parent="1">
          <mxGeometry x="320" y="210" width="120" height="60" as="geometry" />
        </mxCell>
        <mxCell id="00jVBxkWEW1qKjyxyLZR-8" value="&lt;b&gt;PULL&lt;/b&gt;" style="text;html=1;align=center;verticalAlign=middle;resizable=0;points=[];autosize=1;strokeColor=none;fillColor=none;" vertex="1" parent="1">
          <mxGeometry x="270" y="-10" width="50" height="30" as="geometry" />
        </mxCell>
        <mxCell id="00jVBxkWEW1qKjyxyLZR-9" value="&lt;b&gt;every 30min&lt;/b&gt;" style="text;html=1;align=center;verticalAlign=middle;resizable=0;points=[];autosize=1;strokeColor=none;fillColor=none;" vertex="1" parent="1">
          <mxGeometry x="470" y="30" width="90" height="30" as="geometry" />
        </mxCell>
        <mxCell id="00jVBxkWEW1qKjyxyLZR-15" style="edgeStyle=orthogonalEdgeStyle;rounded=0;orthogonalLoop=1;jettySize=auto;html=1;entryX=0;entryY=0.5;entryDx=0;entryDy=0;" edge="1" parent="1" source="00jVBxkWEW1qKjyxyLZR-10" target="00jVBxkWEW1qKjyxyLZR-12">
          <mxGeometry relative="1" as="geometry" />
        </mxCell>
        <mxCell id="00jVBxkWEW1qKjyxyLZR-10" value="&lt;b&gt;CM Server&lt;/b&gt;" style="rounded=0;whiteSpace=wrap;html=1;fillColor=#f8cecc;strokeColor=#b85450;" vertex="1" parent="1">
          <mxGeometry x="120" y="410" width="120" height="60" as="geometry" />
        </mxCell>
        <mxCell id="00jVBxkWEW1qKjyxyLZR-11" value="&lt;b&gt;NODE-1&lt;/b&gt;" style="rounded=1;whiteSpace=wrap;html=1;fillColor=#fff2cc;strokeColor=#d6b656;" vertex="1" parent="1">
          <mxGeometry x="320" y="320" width="120" height="60" as="geometry" />
        </mxCell>
        <mxCell id="00jVBxkWEW1qKjyxyLZR-12" value="&lt;b&gt;NODE-1&lt;/b&gt;" style="rounded=1;whiteSpace=wrap;html=1;fillColor=#fff2cc;strokeColor=#d6b656;" vertex="1" parent="1">
          <mxGeometry x="320" y="410" width="120" height="60" as="geometry" />
        </mxCell>
        <mxCell id="00jVBxkWEW1qKjyxyLZR-13" value="&lt;b&gt;NODE-1&lt;/b&gt;" style="rounded=1;whiteSpace=wrap;html=1;fillColor=#fff2cc;strokeColor=#d6b656;" vertex="1" parent="1">
          <mxGeometry x="320" y="500" width="120" height="60" as="geometry" />
        </mxCell>
        <mxCell id="00jVBxkWEW1qKjyxyLZR-14" style="edgeStyle=orthogonalEdgeStyle;rounded=0;orthogonalLoop=1;jettySize=auto;html=1;entryX=-0.003;entryY=0.62;entryDx=0;entryDy=0;entryPerimeter=0;" edge="1" parent="1" source="00jVBxkWEW1qKjyxyLZR-10" target="00jVBxkWEW1qKjyxyLZR-11">
          <mxGeometry relative="1" as="geometry" />
        </mxCell>
        <mxCell id="00jVBxkWEW1qKjyxyLZR-16" style="edgeStyle=orthogonalEdgeStyle;rounded=0;orthogonalLoop=1;jettySize=auto;html=1;entryX=-0.003;entryY=0.647;entryDx=0;entryDy=0;entryPerimeter=0;" edge="1" parent="1" source="00jVBxkWEW1qKjyxyLZR-10" target="00jVBxkWEW1qKjyxyLZR-13">
          <mxGeometry relative="1" as="geometry" />
        </mxCell>
        <mxCell id="00jVBxkWEW1qKjyxyLZR-17" value="&lt;b&gt;SSH&lt;/b&gt;" style="text;html=1;align=center;verticalAlign=middle;resizable=0;points=[];autosize=1;strokeColor=none;fillColor=none;" vertex="1" parent="1">
          <mxGeometry x="220" y="370" width="50" height="30" as="geometry" />
        </mxCell>
        <mxCell id="00jVBxkWEW1qKjyxyLZR-18" value="&lt;b&gt;PUSH&lt;/b&gt;" style="text;html=1;align=center;verticalAlign=middle;resizable=0;points=[];autosize=1;strokeColor=none;fillColor=none;" vertex="1" parent="1">
          <mxGeometry x="460" y="335" width="60" height="30" as="geometry" />
        </mxCell>
        <mxCell id="00jVBxkWEW1qKjyxyLZR-19" value="&lt;b&gt;automatic reset&lt;/b&gt;" style="text;html=1;align=center;verticalAlign=middle;resizable=0;points=[];autosize=1;strokeColor=none;fillColor=none;" vertex="1" parent="1">
          <mxGeometry x="450" y="70" width="110" height="30" as="geometry" />
        </mxCell>
      </root>
    </mxGraphModel>
  </diagram>
</mxfile>
